<?xml version="1.0" encoding="utf-8"?>
<!-- Generator: Adobe Illustrator 13.0.2, SVG Export Plug-In . SVG Version: 6.00 Build 14948)  -->
<!DOCTYPE svg PUBLIC "-//W3C//DTD SVG 1.1//EN" "http://www.w3.org/Graphics/SVG/1.1/DTD/svg11.dtd">
<svg
  version="1.1"
  id="Layer_1"
  xmlns="http://www.w3.org/2000/svg"
  xmlns:xlink="http://www.w3.org/1999/xlink"
  x="0px"
  y="0px"
  width="47.753px"
  height="73.173px"
  viewBox="0 0 47.753 73.173"
  enable-background="new 0 0 47.753 73.173"
  xml:space="preserve"
>
  <path
    fill="#1C2A39"
    d="M29.497,68.829c0.627-1.351,1.656-4.325,2.283-6.075c0.628-1.75,1.656-7.625,1.656-11
	c0-3.4-0.201-8.025-0.828-9.675c-0.176-0.45-0.352-1.15-0.502-1.95c0.903,0.024,2.283,0.1,2.985,0.274
	c1.104,0.25,4.867,0.851,5.545,1.15s3.337,1.075,4.265,1.225c0.93,0.176,1.707,0.301,1.656,0.601s-1.33,3.95-1.807,5.25
	c-0.477,1.274-4.015,9.45-4.565,10.399c-0.553,0.926-1.254,1.625-0.729,2.426c0.526,0.8,1.431,4.35,1.431,4.35
	c0.051-0.8-0.502-3.95-0.728-4.55c-0.201-0.601,0.903-1.75,1.454-2.95c0.553-1.2,2.484-5.575,2.861-6.3
	c0.376-0.726,2.057-5.4,2.81-6.95c0.778-1.525,0.351-2.8,0.351-2.8s-0.853-0.65-2.307-1.075c-1.456-0.425-3.966-0.8-3.966-0.8
	s0.077-0.925,0-2.601c-0.074-1.649-0.074-10.125-0.225-10.399c-0.126-0.25-0.979-0.5-0.979-0.5s-0.251-0.9-0.477-0.925
	c-0.227-0.05-2.785,0.725-4.366,2.05c-1.179,0.975-2.935,1.925-3.738,2.325c0.101-0.525,0.227-0.975,0.352-1.3
	c0.4-1.025-2.784-3.7-3.513-4.95c-0.075-0.125-0.125-0.225-0.175-0.325c0.652-0.725,1.83-2.05,2.057-2.475
	c0.301-0.6,0.979-2.375,1.279-2.9c0.302-0.5,2.007-2.225,2.86-2.725s3.889-3.275,4.868-4.3c0.979-1.025,0.853-1.575,0.853-1.575
	s-1.656,1.45-2.258,1.95s-4.992,4.425-6.874,5.625c-1.882,1.2-2.435,2.3-3.088,3.15c-0.275,0.35-0.525,0.775-0.752,1.15
	c-0.226-0.7-1.655-1.2-1.655-1.2s-0.126-2.275,0-2.775c0.125-0.525,1.43-0.725,1.631-1.45c0.2-0.725-1.23-1.55-1.23-1.55
	s-0.074-1.225-0.325-2.5c1.305-3.025,3.638-10.25,4.14-11.875c0.074-0.2-0.151-0.375-0.326-0.275
	c-0.326,0.175-0.803,0.75-1.23,2.375c-0.651,2.45-2.458,6.95-3.011,8.3c-0.199-0.475-0.426-0.85-0.627-1.125
	c-0.325-0.45-1.004-0.45-1.354,0c-0.201,0.3-0.426,0.675-0.627,1.125c-0.552-1.35-2.358-5.85-3.011-8.3
	c-0.427-1.625-0.903-2.175-1.229-2.375c-0.176-0.1-0.401,0.075-0.326,0.275c0.526,1.625,2.836,8.875,4.14,11.875
	c-0.276,1.275-0.326,2.5-0.326,2.5s-1.455,0.825-1.229,1.55c0.199,0.725,1.529,0.925,1.631,1.45c0.125,0.525,0,2.775,0,2.775
	s-1.406,0.5-1.656,1.2c-0.201-0.375-0.477-0.775-0.753-1.15c-0.653-0.85-1.205-1.95-3.086-3.15c-1.882-1.2-6.272-5.1-6.874-5.625
	c-0.604-0.5-2.259-1.95-2.259-1.95s-0.125,0.55,0.853,1.575c0.979,1.025,4.015,3.8,4.868,4.3c0.853,0.5,2.559,2.225,2.86,2.725
	c0.301,0.5,0.978,2.3,1.279,2.9c0.226,0.425,1.404,1.75,2.058,2.475c-0.05,0.1-0.126,0.2-0.176,0.325
	c-0.729,1.225-3.914,3.9-3.513,4.95c0.126,0.325,0.251,0.775,0.352,1.3c-0.803-0.425-2.56-1.35-3.738-2.325
	c-1.581-1.325-4.14-2.075-4.366-2.05c-0.226,0.05-0.477,0.925-0.477,0.925s-0.854,0.25-0.979,0.5
	c-0.126,0.25-0.126,8.725-0.226,10.399c-0.075,1.65,0,2.601,0,2.601s-2.534,0.375-3.965,0.8c-1.43,0.425-2.308,1.075-2.308,1.075
	s-0.427,1.274,0.351,2.8c0.778,1.525,2.435,6.225,2.812,6.95c0.376,0.725,2.308,5.1,2.859,6.3s1.656,2.35,1.455,2.95
	c-0.2,0.6-0.752,3.75-0.728,4.55c0,0,0.903-3.525,1.431-4.35c0.526-0.801-0.177-1.5-0.729-2.426
	c-0.552-0.925-4.09-9.125-4.565-10.399c-0.477-1.275-1.757-4.95-1.807-5.25s0.728-0.425,1.655-0.601
	c0.929-0.175,3.588-0.925,4.266-1.225s4.441-0.9,5.545-1.15c0.702-0.149,2.082-0.25,2.985-0.274c-0.176,0.8-0.352,1.5-0.502,1.95
	c-0.627,1.649-0.827,6.274-0.827,9.675c0,3.399,1.028,9.25,1.655,11s1.656,4.725,2.283,6.075c0.627,1.35,2.685,4.625,5.569,4.324
	C26.812,73.454,28.87,70.179,29.497,68.829z M37.426,29.029c1.203-0.675,2.057-1.225,2.057-1.225l0.728,0.25
	c0.126,1.55,0,11.75,0,11.75s-0.651-0.05-2.233-0.5c-1.229-0.375-4.716-0.55-6.171-0.625c-0.327-1.875-0.552-3.9-0.552-4.75
	c0-0.55,0.05-1.25,0.125-1.975l0,0C32.809,31.979,36.221,29.704,37.426,29.029z M9.853,39.304c-1.581,0.475-2.234,0.5-2.234,0.5
	s-0.125-10.225,0-11.75l0.729-0.25c0,0,0.878,0.55,2.057,1.225c1.205,0.675,4.592,2.925,6.048,2.95l0,0
	c0.074,0.725,0.125,1.425,0.125,1.975c0,0.825-0.251,2.85-0.553,4.75C14.569,38.754,11.106,38.929,9.853,39.304z"
  />
</svg>
