<?xml version="1.0" encoding="utf-8"?>
<!-- Generator: Adobe Illustrator 13.0.2, SVG Export Plug-In . SVG Version: 6.00 Build 14948)  -->
<!DOCTYPE svg PUBLIC "-//W3C//DTD SVG 1.1//EN" "http://www.w3.org/Graphics/SVG/1.1/DTD/svg11.dtd">
<svg
  version="1.1"
  id="Layer_1"
  xmlns="http://www.w3.org/2000/svg"
  xmlns:xlink="http://www.w3.org/1999/xlink"
  x="0px"
  y="0px"
  width="39.29px"
  height="58.435px"
  viewBox="0 0 39.29 58.435"
  enable-background="new 0 0 39.29 58.435"
  xml:space="preserve"
>
  <path
    fill="#231F20"
    d="M34.297,14.399c-1.329,0.675-2.96,1.525-3.136,1.525c-0.175,0-0.603-0.7-2.609-1.675
	c-2.007-0.95-3.839-0.601-3.839-0.601s0.076-1.575,0.502-2.375c0.427-0.825,3.036-1.875,3.914-2.125
	c0.903-0.25,1.506-0.575,1.857-1.125c0.351-0.575,0.752-2.7,0.752-3.7s-0.15-2.524-0.703-3.1c-0.576-0.575-1.981-0.825-1.981-0.825
	c0.678,0.65,0.853,2.351,0.853,2.351c-0.325-0.375-1.053-0.5-1.053-0.5c0.752,1.3,0,4.5,0,4.5s-2.059,0-3.889,1.725
	c-1.832,1.725-1.306,0.85-2.686,0.75c-1.404-0.1-1.73-1.5-1.354-1.925s1.354-0.976,1.354-2.575c0-0.525-0.301-1.225-0.678-1.9
	c0.276-0.3,0.778-0.774,1.531-1.1c1.104-0.475,3.161,0.125,3.161,0.125s-1.681-1-3.212-0.825c-1.053,0.101-1.631,0.75-1.881,1.125
	C20.448,1,19.595,0,19.595,0s-0.853,1-1.606,2.149c-0.251-0.375-0.803-1.024-1.882-1.125c-1.53-0.149-3.211,0.825-3.211,0.825
	s2.057-0.6,3.161-0.125c0.728,0.325,1.254,0.8,1.531,1.1c-0.376,0.676-0.677,1.375-0.677,1.9c0,1.6,0.978,2.15,1.354,2.575
	s0.05,1.825-1.354,1.925c-1.405,0.1-0.854,0.975-2.685-0.75C12.395,6.75,10.337,6.75,10.337,6.75s-0.752-3.226,0-4.5
	c0,0-0.728,0.149-1.054,0.5c0,0,0.176-1.7,0.854-2.351c0,0-1.431,0.25-1.983,0.825c-0.577,0.575-0.702,2.1-0.702,3.1
	s0.401,3.125,0.753,3.7c0.351,0.575,0.953,0.9,1.856,1.125c0.903,0.25,3.487,1.325,3.914,2.125c0.427,0.825,0.501,2.375,0.501,2.375
	s-1.856-0.35-3.838,0.601c-2.007,0.949-2.434,1.675-2.61,1.675c-0.175,0-1.806-0.851-3.136-1.525S0,12.375,0,12.375
	s1.606,2.425,2.61,3.149c1.003,0.75,2.86,1.8,3.813,2.101c0.954,0.274,1.932,0.399,2.935,0c1.004-0.4,2.634-1.7,3.839-1.801
	c1.205-0.1,1.179,1.176,1.179,1.176s-1.079,0.824-2.734,1.875c-1.681,1.074-3.713,2.85-4.918,4.649s-2.133,4.375-2.609,5.675
	c-0.452,1.325-0.151,2.45-0.151,2.45s0.426,0.65,0.803,0.875c0.376,0.2,0.903,0.525,0.903,0.525s-0.376-0.8,0.05-0.95
	s0.703-0.475,0.703-0.475s-1.054-0.101-1.43-0.476c-0.376-0.375,0.376-1,0.376-1s0.702-0.375,1.179-1.899
	c0.476-1.551,0.577-2.825,0.577-2.825s2.609-1.375,3.262-2.65c0.627-1.274,1.003-1.899,1.003-1.899s1.706-0.7,2.183-0.426
	c0.476,0.275,0.201,1.9,0,2.025c-0.201,0.1-0.904,1.375-0.853,2.275c0,0-1.807,1.425-1.857,2.824
	c-0.05,1.375,0.426,2.275,0.426,2.275s-2.282,2.175-2.082,3.925s0.627,2.45,0.627,2.45s-0.577,1.175-1.004,3.125
	c-0.427,1.975,0.627,3.4,1.004,3.6c0.376,0.2-0.527,2.275,0,4.25c0.527,1.976,2.032,2.226,2.032,2.226s-0.703,2.75,0.477,4.25
	c1.18,1.475,3.036,1.649,3.036,1.649s0.853,2.325,2.233,2.926c1.38,0.574,2.032-0.375,2.032-0.375s0.653,0.949,2.033,0.375
	c1.38-0.575,2.232-2.926,2.232-2.926s1.857-0.149,3.036-1.649c1.179-1.476,0.477-4.25,0.477-4.25s1.48-0.275,2.032-2.226
	c0.553-1.949-0.376-4.024,0-4.25c0.377-0.225,1.43-1.649,1.004-3.6c-0.427-1.975-1.004-3.125-1.004-3.125s0.427-0.7,0.627-2.45
	C30.283,32.024,28,29.85,28,29.85s0.477-0.9,0.426-2.275c-0.049-1.375-1.855-2.824-1.855-2.824c0.05-0.9-0.627-2.176-0.854-2.275
	c-0.201-0.1-0.477-1.75,0-2.025c0.477-0.274,2.183,0.426,2.183,0.426s0.376,0.625,1.004,1.899c0.627,1.275,3.262,2.65,3.262,2.65
	s0.101,1.274,0.577,2.825c0.477,1.55,1.179,1.899,1.179,1.899s0.753,0.625,0.376,1c-0.376,0.375-1.43,0.476-1.43,0.476
	s0.276,0.324,0.703,0.475c0.426,0.15,0.049,0.95,0.049,0.95s0.527-0.325,0.904-0.525c0.376-0.2,0.803-0.875,0.803-0.875
	s0.326-1.125-0.15-2.45c-0.451-1.324-1.381-3.875-2.609-5.675c-1.205-1.8-3.236-3.6-4.918-4.649C25.967,17.8,24.914,17,24.914,17
	s-0.025-1.275,1.179-1.176c1.204,0.101,2.86,1.426,3.839,1.801c1.004,0.399,1.957,0.274,2.936,0
	c0.953-0.275,2.811-1.351,3.813-2.101c1.004-0.75,2.609-3.149,2.609-3.149S35.603,13.725,34.297,14.399z"
  />
</svg>
