<?xml version="1.0" encoding="utf-8"?>
<!-- Generator: Adobe Illustrator 13.0.2, SVG Export Plug-In . SVG Version: 6.00 Build 14948)  -->
<!DOCTYPE svg PUBLIC "-//W3C//DTD SVG 1.1//EN" "http://www.w3.org/Graphics/SVG/1.1/DTD/svg11.dtd">
<svg
  version="1.1"
  id="Layer_1"
  xmlns="http://www.w3.org/2000/svg"
  xmlns:xlink="http://www.w3.org/1999/xlink"
  x="0px"
  y="0px"
  width="39.425px"
  height="76.375px"
  viewBox="0 0 39.425 76.375"
  enable-background="new 0 0 39.425 76.375"
  xml:space="preserve"
>
  <path
    fill="#1C2A39"
    d="M36.447,6.15C40.009,1.225,39.382,0,39.382,0S38.53,0.5,37.35,2.05c-1.204,1.55-2.258,3.2-2.258,3.2
	l-0.478-1.675c0,0-1.43,2.65-0.953,4.05l-0.953-1.2c0,0-1.154,1.95-0.828,3.325l-1.555-0.725c0,0-0.352,2.025-0.478,2.5
	l-1.204-0.475c0,0-0.25,1.675-0.477,2.5l-0.728-0.725c0,0-1.079,1.775-1.305,2.625l-0.728-0.95l-0.602,2.25l-0.828-0.25
	c0,0-0.352,1.2-0.828,1.775c-0.477,0.6-1.43,1.675-1.43,1.675l-2.033,0.525l-2.032-0.525c0,0-0.953-1.075-1.43-1.675
	S15.397,16.5,15.397,16.5l-0.828,0.25l-0.602-2.25l-0.728,0.95c-0.251-0.825-1.304-2.625-1.304-2.625l-0.728,0.725
	c-0.25-0.825-0.477-2.5-0.477-2.5l-1.205,0.475C9.4,11.05,9.05,9.025,9.05,9.025L7.494,9.75C7.82,8.375,6.666,6.425,6.666,6.425
	l-0.954,1.2c0.477-1.4-0.954-4.05-0.954-4.05L4.333,5.25c0,0-1.079-1.675-2.258-3.2C0.87,0.5,0.042,0,0.042,0
	s-0.627,1.225,2.935,6.15c3.563,4.925,13.75,14.325,13.75,14.325s-1.682,4.6-2.735,6.6c-0.677,1.25-1.004,4.7-1.205,7.45
	c-1.154-1.05-1.204-2.625-0.928-3.65c0.352-1.25,0.426-2.55,0.076-3.65c-0.352-1.1-1.731-2.625-2.434-3.65
	c-0.702-1.025,0.703-2.55,0.703-2.55s-1.581,1.25-1.581,2.35s2.484,4,2.709,4.975c0.226,0.975-0.752,3.525-0.627,4.7
	c0.15,1.175,0.752,1.725,1.104,2.425c0.175,0.35,0.527,1.05,0.828,1.625c-0.025,0.475-0.05,0.85-0.075,1.075
	c-0.025,0.45-0.1,1.351-0.176,2.375c-0.502,0.325-1.229,0.95-1.58,1.775c-0.553,1.3-0.753,2.7-0.979,4.075
	c-0.201,1.375,0.075,3.024-0.351,4.074C9.05,51.5,6.214,54.55,6.014,55.775c-0.201,1.25,0,2.149,0,2.149s0.351-2,1.455-3.3
	s2.208-2.7,2.71-4.075c0.476-1.375,0.527-5.3,1.279-6.425c0.276-0.375,0.527-0.6,0.728-0.75c-0.076,1.225-0.125,2.2-0.125,2.2
	s0,1.625,0.025,3.875l0,0c0,0-1.129,1.3-1.205,2.475c-0.075,1.175-0.2,5.45-0.276,6.351c-0.075,0.899,0.15,2.35-0.752,3.524
	c-0.903,1.175-1.456,3.8-1.731,5.101c-0.276,1.3,0.351,2,0.351,2S8.271,66.825,9.1,65.175c0.828-1.649,2.283-3.575,2.358-4.425
	c0.075-0.825-0.351-4.975,0-5.375c0.15-0.175,0.452,0.125,0.753,0.55c0.025,1.476,0.075,2.851,0.125,3.925
	c0.251,4.4,2.985,11.4,4.064,13.551c1.079,2.149,3.337,2.975,3.337,2.975s2.258-0.825,3.336-2.975
	c1.08-2.15,3.814-9.15,4.065-13.551c0.05-1.05,0.101-2.449,0.126-3.925c0.275-0.399,0.576-0.725,0.752-0.55
	c0.352,0.425-0.075,4.55,0,5.375s1.53,2.75,2.358,4.425c0.827,1.65,0.628,3.726,0.628,3.726s0.627-0.7,0.35-2
	c-0.275-1.301-0.827-3.926-1.73-5.101s-0.702-2.625-0.752-3.524c-0.076-0.9-0.201-5.176-0.277-6.351
	c-0.074-1.175-1.203-2.475-1.203-2.475l0,0c0.025-2.226,0.025-3.875,0.025-3.875s-0.051-0.95-0.126-2.2
	c0.226,0.125,0.477,0.35,0.728,0.75c0.753,1.1,0.803,5.025,1.279,6.425c0.477,1.375,1.581,2.75,2.71,4.075
	c1.104,1.3,1.455,3.3,1.455,3.3s0.2-0.899,0-2.149S30.425,51.5,30,50.475c-0.428-1.024-0.151-2.699-0.352-4.074
	c-0.201-1.375-0.427-2.75-0.979-4.075C28.318,41.5,27.59,40.9,27.088,40.55c-0.075-1.024-0.126-1.925-0.175-2.375
	c-0.025-0.225-0.051-0.6-0.076-1.075c0.302-0.6,0.652-1.275,0.828-1.625c0.352-0.7,0.979-1.25,1.104-2.425
	c0.15-1.175-0.828-3.725-0.628-4.7c0.201-0.975,2.71-3.85,2.71-4.975c0-1.1-1.581-2.35-1.581-2.35s1.381,1.525,0.703,2.55
	c-0.703,1.025-2.082,2.55-2.434,3.65s-0.275,2.425,0.075,3.65c0.301,1.05,0.226,2.6-0.929,3.65c-0.2-2.75-0.526-6.175-1.203-7.45
	c-1.08-2.025-2.735-6.6-2.735-6.6S32.91,11.1,36.447,6.15z"
  />
</svg>
