<?xml version="1.0" encoding="utf-8"?>
<!-- Generator: Adobe Illustrator 13.0.2, SVG Export Plug-In . SVG Version: 6.00 Build 14948)  -->
<!DOCTYPE svg PUBLIC "-//W3C//DTD SVG 1.1//EN" "http://www.w3.org/Graphics/SVG/1.1/DTD/svg11.dtd">
<svg
  version="1.1"
  id="Layer_1"
  xmlns="http://www.w3.org/2000/svg"
  xmlns:xlink="http://www.w3.org/1999/xlink"
  x="0px"
  y="0px"
  width="49.375px"
  height="79.275px"
  viewBox="0 0 49.375 79.275"
  enable-background="new 0 0 49.375 79.275"
  xml:space="preserve"
>
  <path
    fill="#231F20"
    d="M47.82,48.5c-1.129-0.925-5.168-3.175-5.168-3.175S41.949,44.7,41.096,43.2
	c-0.854-1.475-2.057-2.825-3.262-3.875c-1.203-1.05-2.76-1.625-5.118-1.475c-2.358,0.15-3.889,1.475-3.889,1.475l0.502-1.775
	c0,0,4.265-1.625,4.892-2.75c0.628-1.125,1.055-4.3,1.129-5.375c0.076-1.075,1.13-1.9,1.908-2.475
	c0.777-0.575,3.462-5.075,3.462-5.075s-2.761,3.25-4.616,4.525c-1.832,1.275-2.133,3.1-2.133,4.525c0,1.425-0.276,2.325-1.204,2.325
	c-0.929,0-3.262,0-3.262,0s0.853-0.925,0.853-1.2s-0.352-0.5-0.702-1.425c-0.352-0.925-1.48-1.775-1.48-1.775s0.778-0.925,0.452-3.4
	c-0.101-0.675-0.452-1.225-0.903-1.625c0.552-0.475,2.282-2,3.663-2.825c1.631-1,6.322-5.225,9.007-7.425
	C43.078,11.375,46.34,6.65,44.082,0c0,0,0.702,3.825-0.352,7.075s-6.272,7.775-7.025,8.275c-0.752,0.5-5.369,4.725-6.322,5.375
	c-0.828,0.55-3.361,1.925-4.014,2.25h-0.025c-1.055-0.45-2.258-0.45-3.312,0h-0.025c-0.627-0.35-3.186-1.7-4.014-2.25
	c-0.954-0.625-5.569-4.875-6.322-5.375s-5.972-5.025-7.025-8.275C4.591,3.825,5.293,0,5.293,0C3.036,6.65,6.297,11.375,8.981,13.575
	c2.685,2.2,7.376,6.425,9.007,7.425c1.355,0.825,3.111,2.35,3.663,2.825c-0.451,0.425-0.802,0.95-0.903,1.625
	c-0.326,2.475,0.452,3.4,0.452,3.4s-1.129,0.85-1.48,1.775c-0.351,0.925-0.703,1.125-0.703,1.425c0,0.275,0.854,1.2,0.854,1.2
	s-2.333,0-3.262,0s-1.205-0.925-1.205-2.325c0-1.425-0.276-3.25-2.133-4.525c-1.831-1.275-4.616-4.525-4.616-4.525
	s2.684,4.525,3.462,5.075c0.778,0.575,1.832,1.425,1.907,2.475c0.075,1.05,0.502,4.25,1.129,5.375
	c0.627,1.125,4.893,2.75,4.893,2.75l0.501,1.775c0,0-1.53-1.35-3.889-1.475c-2.358-0.15-3.914,0.425-5.118,1.475
	c-1.205,1.05-2.409,2.4-3.262,3.875c-0.853,1.476-1.556,2.125-1.556,2.125s-4.04,2.25-5.168,3.175C0.426,49.425,0,50.75,0,50.75
	s1.43-1.625,2.834-2.324c1.405-0.7,3.889-1.7,4.541-2.25C8.003,45.6,8.73,44.35,9.859,42.85c1.129-1.476,2.484-2.775,2.484-2.775
	s2.383,0.726,3.537,0.726c1.129,0,2.811-0.075,2.811-0.075s-0.326,2.25-0.527,4.875c-0.2,2.625,0.201,5.149,0.201,5.149
	s-1.781-0.425-3.061,0c-1.28,0.426-2.986,1-3.688,2.976c-0.702,1.975-1.781,7.7-2.057,8.399c-0.276,0.7-2.76,4.301-3.537,5.5
	c-0.778,1.2-1.556,5.15-0.502,6.075c0,0-0.352-2.975,1.831-5.875c2.208-2.899,3.187-4.524,3.839-7.625
	c0.627-3.1,1.004-6.149,1.48-6.35c0.502-0.2,3.061,0.85,5.319,0.35c0,0,0.928,12.726,1.053,15.625c0.151,2.9,2.76,6.5,4.617,7.2
	c0,0,0.401,1.625,1.029,2.25c0.602-0.625,1.029-2.25,1.029-2.25c1.831-0.7,4.465-4.3,4.615-7.2
	c0.151-2.899,1.055-15.625,1.055-15.625c2.258,0.5,4.816-0.575,5.318-0.35c0.502,0.2,0.854,3.25,1.48,6.35
	c0.627,3.101,1.631,4.726,3.839,7.625c2.208,2.9,1.831,5.875,1.831,5.875c1.055-0.925,0.275-4.875-0.502-6.075
	c-0.777-1.199-3.262-4.8-3.537-5.5c-0.275-0.699-1.355-6.425-2.057-8.399c-0.703-1.976-2.41-2.55-3.689-2.976
	c-1.279-0.425-3.061,0-3.061,0s0.427-2.55,0.201-5.149c-0.201-2.625-0.527-4.875-0.527-4.875S32.34,40.8,33.494,40.8
	c1.129,0,3.537-0.726,3.537-0.726s1.355,1.3,2.484,2.775c1.129,1.475,1.831,2.75,2.483,3.325c0.627,0.574,3.111,1.55,4.542,2.25
	c1.43,0.699,2.834,2.324,2.834,2.324S48.949,49.4,47.82,48.5z"
  />
</svg>
