<?xml version="1.0" encoding="utf-8"?>
<!-- Generator: Adobe Illustrator 13.0.2, SVG Export Plug-In . SVG Version: 6.00 Build 14948)  -->
<!DOCTYPE svg PUBLIC "-//W3C//DTD SVG 1.1//EN" "http://www.w3.org/Graphics/SVG/1.1/DTD/svg11.dtd">
<svg
  version="1.1"
  id="Layer_1"
  xmlns="http://www.w3.org/2000/svg"
  xmlns:xlink="http://www.w3.org/1999/xlink"
  x="0px"
  y="0px"
  width="44.058px"
  height="61.475px"
  viewBox="0 0 44.058 61.475"
  enable-background="new 0 0 44.058 61.475"
  xml:space="preserve"
>
  <path
    fill="#1C2A39"
    d="M37.509,50.699c0.502-1.699,0.853-5.274,0.778-8.149c-0.076-2.875-1.456-3.4-2.561-4.575
	c-1.104-1.2-1.78-1.875-1.78-3.3c0-1.45-1.028-2.3-0.902-3.476c0.125-1.199,0.376-1.699,0.978-2.05c0.602-0.35,1.354-0.25,1.782,1.2
	c0.425,1.45,1.203,4.325,3.662,7.125s4.592,3.225,4.592,3.225c-3.312-2.05-6.223-8.399-7.076-10.449
	c-0.853-2.051-1.354-3.301-2.635-3.4c-1.278-0.075-2.634,1.1-3.311,0c-0.678-1.1-2.735-0.675-2.885-1.625
	c-0.177-0.925,0.927-1.1,1.454-1.525c0.502-0.425,2.133-2.125,2.886-2.975c0.777-0.85,1.279-2.3,0.853-4.325
	c-0.175-0.8-0.377-1.625-0.628-2.375c1.129,0.351,2.184,0.925,3.188,1.8c1.956,1.7,4.591,6.801,4.591,6.801
	s-0.075-2.051-0.853-3.476c-0.778-1.45-3.838-4.575-5.295-5.6c-0.576-0.4-1.303-0.675-2.106-0.825c-0.251-0.65-0.477-1.25-0.702-1.7
	c-0.603-1.274-0.352-2.2,0.351-2.875c0.678-0.675,1.455-2.375,0.603-4.25C31.638,2.024,31.137,0,31.137,0s-0.603,0.35-0.502,2.125
	c0.074,1.774,0.853,1.699,1.078,3.225c0.227,1.525-1.506,2.375-2.032,3.725c-0.477,1.25,0.275,2.476,0.803,3.45
	c-0.677-0.024-1.38,0.025-1.981,0.101c-1.907,0.274-3.412-0.075-3.839,1.024c-0.251,0.675-0.4,1.775-0.452,2.55
	c-0.627-0.425-1.078-0.675-1.078-0.675s0,0-0.176-1.274c-0.176-1.275-0.929-1.45-0.929-1.45s-0.776,0.175-0.928,1.45
	c-0.177,1.274-0.177,1.274-0.177,1.274s-0.45,0.275-1.078,0.675c-0.075-0.774-0.2-1.875-0.451-2.55
	c-0.427-1.1-1.932-0.75-3.839-1.024c-0.628-0.101-1.305-0.125-1.981-0.101c0.526-0.975,1.254-2.225,0.802-3.45
	c-0.501-1.35-2.258-2.199-2.031-3.725c0.226-1.525,1.004-1.45,1.078-3.225C13.498,0.35,12.921,0,12.921,0s-0.502,2.05-1.354,3.899
	c-0.853,1.875-0.075,3.575,0.602,4.25c0.679,0.675,0.93,1.625,0.352,2.875c-0.226,0.476-0.451,1.05-0.702,1.7
	c-0.804,0.175-1.53,0.425-2.107,0.825c-1.456,1.024-4.516,4.149-5.294,5.6s-0.853,3.476-0.853,3.476s2.635-5.101,4.591-6.801
	c1.003-0.875,2.058-1.449,3.187-1.8c-0.251,0.775-0.452,1.575-0.627,2.375c-0.427,2.05,0.074,3.476,0.853,4.325
	s2.384,2.55,2.886,2.975c0.502,0.426,1.631,0.601,1.454,1.525c-0.175,0.925-2.207,0.5-2.885,1.625c-0.677,1.1-2.057-0.075-3.312,0
	c-1.279,0.075-1.781,1.35-2.634,3.4C6.223,32.3,3.337,38.649,0,40.699c0,0,2.133-0.425,4.592-3.225s3.237-5.7,3.662-7.125
	c0.428-1.45,1.206-1.525,1.782-1.2c0.602,0.351,0.853,0.851,0.978,2.05c0.126,1.2-0.902,2.051-0.902,3.476
	c0,1.45-0.678,2.125-1.781,3.3c-1.104,1.2-2.46,1.7-2.56,4.575C5.696,45.425,6.021,49,6.549,50.699
	c0.502,1.7-0.351,6.275-1.782,8.15c-1.454,1.875-1.354,2.625-1.354,2.625s2.133-0.925,3.413-3.575
	c1.279-2.625,1.53-5.524,1.203-7.725c-0.351-2.2-0.928-7.125-0.351-8.325c0.602-1.2,2.058-1.45,2.058-1.45s-0.502,1.45-0.777,3.476
	c-0.251,2.05,0.074,6.875,3.16,9.925c3.061,3.05,7.828,5.7,9.961,6.024c2.132-0.35,6.899-2.975,9.961-6.024
	c3.06-3.05,3.411-7.9,3.16-9.925c-0.251-2.051-0.776-3.476-0.776-3.476s1.454,0.25,2.056,1.45c0.603,1.2,0,6.125-0.351,8.325
	s-0.074,5.1,1.204,7.725c1.279,2.625,3.412,3.575,3.412,3.575s0.076-0.775-1.354-2.625C37.859,56.975,37.007,52.399,37.509,50.699z
	 M18.164,17.324C16.886,18.35,16.208,18,15.43,19.1s-0.778,1.1-0.778,1.1s-1.881,0-2.207-0.6c-0.351-0.6,0-2.3,0-3.15
	c0-0.625,0.226-1.824,0.577-2.824c0.526-0.051,1.079-0.075,1.656-0.051c2.383,0.075,3.312,0.601,3.486,0.851
	c0.102,0.149,0.251,1.5,0.377,2.6C18.415,17.149,18.29,17.225,18.164,17.324z M25.466,17.05c0.125-1.101,0.276-2.45,0.376-2.601
	c0.177-0.25,1.104-0.774,3.487-0.85c0.553-0.025,1.104,0,1.656,0.05c0.326,1,0.577,2.2,0.577,2.825c0,0.85,0.352,2.55,0,3.15
	c-0.352,0.6-2.208,0.6-2.208,0.6s0,0-0.778-1.1c-0.777-1.101-1.454-0.775-2.734-1.775C25.717,17.225,25.591,17.149,25.466,17.05z"
  />
</svg>
