<?xml version="1.0" encoding="utf-8"?>
<!-- Generator: Adobe Illustrator 13.0.2, SVG Export Plug-In . SVG Version: 6.00 Build 14948)  -->
<!DOCTYPE svg PUBLIC "-//W3C//DTD SVG 1.1//EN" "http://www.w3.org/Graphics/SVG/1.1/DTD/svg11.dtd">
<svg
  version="1.1"
  id="Layer_1"
  xmlns="http://www.w3.org/2000/svg"
  xmlns:xlink="http://www.w3.org/1999/xlink"
  x="0px"
  y="0px"
  width="53.04px"
  height="64.35px"
  viewBox="0 0 53.04 64.35"
  enable-background="new 0 0 53.04 64.35"
  xml:space="preserve"
>
  <path
    fill="#1C2A39"
    d="M47.821,43.8c-1.104-1.1-4.365-6.7-4.365-6.7s-3.287-3.274-4.741-4.899c-1.457-1.625-5.997-1.45-5.997-1.45
	s4.014-3.45,4.54-4.725c0.553-1.275,3.088-0.551,3.814-1.825c0.728-1.275,0-5.625,0-6.9c0-1.274,3.638-1.1,5.093-2.55
	c1.456-1.45,1.631-5.075,1.631-5.075s-1.279,2.9-2.182,3.45c-0.904,0.55-6.198,1.45-6.374,4.175c-0.175,2.726-1.278,2.726-2.734,4.9
	c-1.455,2.175-4.742,5.625-4.742,5.625s0,0-0.175-1.45c-0.176-1.45-1.279-3.45-2.56-6.525C28.679,19,28.352,18.2,28.052,17.5
	c-0.077-0.2-0.202-0.35-0.353-0.475h0.025c0,0,0-5.801,0-6.551S28.527,8.9,28.527,8.9h2.333c0,0,2.258-0.301,2.609-0.7
	c0.353-0.4,0.302-1.75,0.578-3.476c0.301-1.75,2.081-2.774,2.081-2.774s-3.085,0.925-3.436,2.024
	c-0.353,1.101-0.527,2.375-0.527,3.176c0,0.8-1.757,0.574-3.137,0.574c-1.405,0-1.907,0.75-1.907,0.75V0h-0.476H26.17v8.525
	c0,0-0.527-0.75-1.907-0.75S21.126,8,21.126,7.2S20.95,5.125,20.6,4.025C20.248,2.925,17.162,2,17.162,2s1.807,1.05,2.083,2.775
	c0.301,1.75,0.225,3.074,0.577,3.475c0.351,0.4,2.608,0.7,2.608,0.7h2.334c0,0,0.803,0.8,0.803,1.575c0,0.75,0,6.55,0,6.55h0.025
	c-0.126,0.125-0.251,0.274-0.353,0.475c-0.301,0.726-0.627,1.525-0.978,2.351c-1.28,3.074-2.358,5.074-2.559,6.524
	c-0.176,1.45-0.176,1.45-0.176,1.45s-3.287-3.45-4.742-5.625c-1.456-2.175-2.56-2.175-2.734-4.9
	c-0.176-2.725-5.47-3.625-6.374-4.175c-0.902-0.55-2.183-3.45-2.183-3.45S5.671,13.35,7.126,14.8c1.456,1.45,5.094,1.275,5.094,2.55
	c0,1.275-0.728,5.625,0,6.9s3.287,0.55,3.813,1.825c0.552,1.274,4.541,4.725,4.541,4.725s-4.541-0.175-5.996,1.45
	s-4.742,4.9-4.742,4.9s-3.287,5.625-4.365,6.699C4.366,44.95,1.833,46.925,0,46.75c0,0,3.814,0.55,6.374-1.625
	c2.559-2.175,4.917-5.25,5.997-7.25c1.104-2,5.269-4.175,5.819-4.35c0.553-0.176-0.903,3.274-1.104,5.449c0,0-3.287,2.351-4.742,4.9
	S10.89,48.4,10.89,48.4s0.176,6.699,0.376,7.25c0.176,0.55,1.456,5.074-0.376,8.699c0,0,2.735-3.074,2.359-7.25
	c-0.377-4.175-0.904-9.25,0-10.149c0.902-0.9,3.286-4,3.638-4.525c0.351-0.524,0.175,8.7,1.454,11.25
	c1.28,2.55,4.542,6.525,8.18,6.9c3.638-0.375,6.925-4.351,8.18-6.9c1.279-2.55,1.104-11.8,1.454-11.25
	c0.377,0.55,2.734,3.625,3.639,4.525c0.903,0.899,0.376,5.975,0,10.149c-0.377,4.176,2.357,7.25,2.357,7.25
	c-1.831-3.625-0.551-8.149-0.376-8.699C41.95,55.1,42.15,48.4,42.15,48.4s0-2-1.454-4.525c-1.456-2.55-4.741-4.9-4.741-4.9
	c-0.177-2.175-1.631-5.625-1.105-5.449c0.553,0.175,4.743,2.35,5.821,4.35c1.104,2,3.462,5.075,5.996,7.25
	c2.56,2.175,6.373,1.625,6.373,1.625C51.459,46.9,48.925,44.9,47.821,43.8z"
  />
</svg>
