<?xml version="1.0" encoding="utf-8"?>
<!-- Generator: Adobe Illustrator 13.0.2, SVG Export Plug-In . SVG Version: 6.00 Build 14948)  -->
<!DOCTYPE svg PUBLIC "-//W3C//DTD SVG 1.1//EN" "http://www.w3.org/Graphics/SVG/1.1/DTD/svg11.dtd">
<svg
  version="1.1"
  id="Layer_1"
  xmlns="http://www.w3.org/2000/svg"
  xmlns:xlink="http://www.w3.org/1999/xlink"
  x="0px"
  y="0px"
  width="51.742px"
  height="71.208px"
  viewBox="0 0 51.742 71.208"
  enable-background="new 0 0 51.742 71.208"
  xml:space="preserve"
>
  <path
    fill="#231F20"
    d="M27.476,66.807c0,0,4.314-3.55,6.573-11.6c2.233-8.025,1.153-16.9,1.153-16.9
	c1.08-0.074,4.994-1.5,4.994-1.5s1.153,0.25,1.831,1.15c0.677,0.9,1.153,5.125,1.655,6.45s1.154,2.649,1.154,2.899
	s-1.656,3.226-2.157,4.301c-0.502,1.074-3.237,3.55-3.237,3.55s2.484-0.75,3.664-1.575c1.154-0.825,3.086-3.975,3.663-5.875
	s0.075-3.975-1.255-6.225c-1.33-2.226-3.562-6.45-4.667-6.7c-1.078-0.25-5.646,0.575-5.646,0.575c0-2.226-0.325-6.375-0.325-6.375
	c0.827-0.075,2.91-2,3.938-1.9c1.029,0.075,3.789,2.325,4.943,3.4c1.154,1.074,0.902,1.824,1.831,1.75
	c0.903-0.075,1.757-1.5,3.412-1.5c1.656,0,2.735,1.5,2.735,1.5s0.176-1-1.757-1.9c-1.907-0.9-4.165,0-4.165,0
	c-0.677-1.075-5.494-4.725-7.728-4.975c-2.232-0.25-3.913,0.824-3.913,0.824s0.326-0.675-0.452-2.975
	c-0.778-2.325-2.459-5.55-2.459-5.55c2.233-0.9,6.397-3.726,7.903-4.8c1.506-1.075,2.408-2.4,2.408-3.226s-1.254-7.125-2.734-8.524
	c-1.506-1.4-2.835-1.075-2.835-1.075c3.086,1.825,4.24,9.45,4.24,9.45c-0.753,0.324-2.158,1.399-2.158,1.399
	c-4.565,0.325-9.058,2.4-9.058,2.4c-0.827-0.825-3.161-0.825-3.161-0.825s-2.333,0-3.161,0.825c0,0-4.491-2.075-9.057-2.4
	c0,0-1.405-1.075-2.158-1.399c0,0,1.155-7.625,4.24-9.45c0,0-1.329-0.325-2.835,1.075c-1.505,1.399-2.734,7.699-2.734,8.524
	s0.903,2.15,2.408,3.226c1.505,1.074,5.645,3.899,7.903,4.8c0,0-1.656,3.225-2.459,5.55c-0.778,2.325-0.451,2.975-0.451,2.975
	s-1.656-1.074-3.914-0.824s-7.076,3.899-7.728,4.975c0,0-2.233-0.9-4.165,0c-1.907,0.9-1.756,1.9-1.756,1.9s1.079-1.5,2.735-1.5
	c1.656,0,2.483,1.399,3.412,1.5c0.903,0.074,0.677-0.676,1.832-1.75c1.154-1.075,3.914-3.325,4.943-3.4
	c1.028-0.075,3.111,1.825,3.938,1.9c0,0-0.326,4.149-0.326,6.375c0,0-4.566-0.825-5.645-0.575c-1.079,0.25-3.337,4.475-4.667,6.7
	c-1.33,2.225-1.832,4.3-1.254,6.225s2.484,5.05,3.663,5.875c1.154,0.825,3.663,1.575,3.663,1.575s-2.735-2.476-3.237-3.55
	c-0.501-1.075-2.157-4.051-2.157-4.301s0.677-1.574,1.154-2.899c0.502-1.325,1.003-5.55,1.656-6.45c0.678-0.9,1.832-1.15,1.832-1.15
	s3.914,1.4,4.993,1.5c0,0-1.079,8.875,1.154,16.9c2.233,8.025,6.573,11.6,6.573,11.6s0.903,3.476,1.581,4.4
	C26.547,70.283,27.476,66.807,27.476,66.807z"
  />
</svg>
